<svg width="125" height="125" viewBox="0 0 125 125" fill="none" xmlns="http://www.w3.org/2000/svg">
<path d="M7.48543 56.9857C10.6353 26.4888 37.9098 4.33828 68.4067 7.48812C98.9036 10.638 121.054 37.9124 117.904 68.4093C114.754 98.9062 87.4654 121.057 56.983 117.907C26.5007 114.757 4.33558 87.4826 7.48543 56.9857Z" fill="#0097C5"/>
<path d="M1.33112 56.347C4.84385 22.4535 35.1521 -2.17918 69.0456 1.33355C102.939 4.84628 127.572 35.1545 124.059 69.048C120.546 102.941 90.2381 127.574 56.3446 124.061C22.4511 120.563 -2.1671 90.2405 1.33112 56.347Z" stroke="#00B49D" stroke-width="1.252" stroke-miterlimit="10" stroke-dasharray="6.17 6.17"/>
<path d="M92.343 39.422C92.343 50.0763 83.7063 58.713 73.052 58.713C62.3977 58.713 53.761 50.0763 53.761 39.422C53.761 28.7677 62.3977 20.131 73.052 20.131C83.7063 20.1165 92.343 28.7677 92.343 39.422Z" fill="white"/>
<path d="M92.343 39.422C92.343 50.0763 83.7063 58.713 73.052 58.713C62.3977 58.713 53.761 50.0763 53.761 39.422C53.761 28.7677 62.3977 20.131 73.052 20.131C83.7063 20.1165 92.343 28.7677 92.343 39.422Z" stroke="#001F3A" stroke-width="0.484" stroke-miterlimit="10" stroke-linecap="round" stroke-linejoin="round"/>
<path d="M88.7719 39.422C88.7719 48.1022 81.732 55.1422 73.0518 55.1422C64.3715 55.1422 57.3315 48.1022 57.3315 39.422C57.3315 30.7417 64.3715 23.7018 73.0518 23.7018C81.732 23.6873 88.7719 30.7272 88.7719 39.422Z" fill="white"/>
<path d="M87.5983 45.4135C90.9209 37.3922 87.1119 28.1962 79.0905 24.8735C71.0692 21.5509 61.8732 25.3599 58.5506 33.3813C55.2279 41.4026 59.037 50.5987 67.0583 53.9213C75.0796 57.2439 84.2757 53.4348 87.5983 45.4135Z" stroke="#001F3A" stroke-width="0.484" stroke-miterlimit="10" stroke-linecap="round" stroke-linejoin="round"/>
<path d="M88.7719 39.422C88.7719 48.1022 81.732 55.1422 73.0518 55.1422C64.3715 55.1422 57.3315 48.1022 57.3315 39.422C57.3315 30.7417 64.3715 23.7018 73.0518 23.7018C81.732 23.6873 88.7719 30.7272 88.7719 39.422Z" fill="white"/>
<path d="M87.5983 45.4135C90.9209 37.3922 87.1119 28.1962 79.0905 24.8735C71.0692 21.5509 61.8732 25.3599 58.5506 33.3813C55.2279 41.4026 59.037 50.5987 67.0583 53.9213C75.0796 57.2439 84.2757 53.4348 87.5983 45.4135Z" stroke="#001F3A" stroke-width="0.484" stroke-miterlimit="10" stroke-linecap="round" stroke-linejoin="round"/>
<path d="M51.5835 39.422H59.2041" stroke="#001F3A" stroke-width="0.484" stroke-miterlimit="10" stroke-linecap="round" stroke-linejoin="round"/>
<path d="M86.8845 39.422H94.5196" stroke="#001F3A" stroke-width="0.484" stroke-miterlimit="10" stroke-linecap="round" stroke-linejoin="round"/>
<path d="M51.2351 39.422H58.8702" stroke="#001F3A" stroke-width="0.484" stroke-miterlimit="10" stroke-linecap="round" stroke-linejoin="round"/>
<path d="M86.551 39.422H94.1861" stroke="#001F3A" stroke-width="0.484" stroke-miterlimit="10" stroke-linecap="round" stroke-linejoin="round"/>
<path d="M73.0229 60.8903V53.2552" stroke="#001F3A" stroke-width="0.484" stroke-miterlimit="10" stroke-linecap="round" stroke-linejoin="round"/>
<path d="M73.0229 25.5743V17.9392" stroke="#001F3A" stroke-width="0.484" stroke-miterlimit="10" stroke-linecap="round" stroke-linejoin="round"/>
<path d="M74.5324 49.3796C74.5324 50.2795 73.8067 51.0198 72.8922 51.0198C71.9922 51.0198 71.252 50.2941 71.252 49.3796C71.252 48.4796 71.9777 47.7393 72.8922 47.7393C73.8067 47.7539 74.5324 48.4796 74.5324 49.3796Z" fill="white"/>
<path d="M74.5324 49.3796C74.5324 50.2795 73.8067 51.0198 72.8922 51.0198C71.9922 51.0198 71.252 50.2941 71.252 49.3796C71.252 48.4796 71.9777 47.7393 72.8922 47.7393C73.8067 47.7539 74.5324 48.4796 74.5324 49.3796Z" stroke="#001F3A" stroke-width="0.484" stroke-miterlimit="10" stroke-linecap="round" stroke-linejoin="round"/>
<path d="M80.4547 35.0964C80.2224 31.3369 77.1597 28.2742 73.4002 28.0419C69.6988 27.8097 66.5199 30.2483 65.62 33.6159C65.3587 34.6029 66.0989 35.5754 67.1295 35.5754H67.1876C67.8698 35.5754 68.4359 35.0964 68.6101 34.4432C69.1472 32.3675 71.1503 30.887 73.4437 31.1337C75.4904 31.3514 77.1452 33.0207 77.3774 35.0674C77.6822 37.7673 75.5775 40.0462 72.9357 40.0462H72.9212C72.0502 40.0462 71.3245 40.7139 71.3245 41.5993V42.5864V44.154C71.3245 45.0395 72.0357 45.7507 72.9212 45.7507C73.8066 45.7507 74.5179 45.0395 74.5179 44.154V42.9638C78.0597 42.209 80.6869 38.9285 80.4547 35.0964Z" fill="white"/>
<path d="M80.4547 35.0964C80.2224 31.3369 77.1597 28.2742 73.4002 28.0419C69.6988 27.8097 66.5199 30.2483 65.62 33.6159C65.3587 34.6029 66.0989 35.5754 67.1295 35.5754H67.1876C67.8698 35.5754 68.4359 35.0964 68.6101 34.4432C69.1472 32.3675 71.1503 30.887 73.4437 31.1337C75.4904 31.3514 77.1452 33.0207 77.3774 35.0674C77.6822 37.7673 75.5775 40.0462 72.9357 40.0462H72.9212C72.0502 40.0462 71.3245 40.7139 71.3245 41.5993V42.5864V44.154C71.3245 45.0395 72.0357 45.7507 72.9212 45.7507C73.8066 45.7507 74.5179 45.0395 74.5179 44.154V42.9638C78.0597 42.209 80.6869 38.9285 80.4547 35.0964Z" stroke="#001F3A" stroke-width="0.484" stroke-miterlimit="10" stroke-linecap="round" stroke-linejoin="round"/>
<path d="M100.152 73.5478C96.5234 72.9091 93.7799 69.6721 93.7799 65.7675C93.7799 65.2014 93.3881 64.7224 92.851 64.6498L89.0044 64.1563C86.8997 63.8805 84.7659 63.7498 82.6466 63.7498C80.5274 63.7498 78.3936 63.8805 76.2889 64.1563L72.4423 64.6498C71.9052 64.7224 71.5133 65.2014 71.5133 65.7675C71.5133 69.6721 68.7554 72.9091 65.1411 73.5478C64.575 73.6494 64.1976 74.1719 64.2556 74.7525C65.6346 87.86 70.3666 96.816 79.7145 104.262C80.5709 104.945 81.6161 105.293 82.6612 105.293C83.7063 105.293 84.7513 104.945 85.6078 104.262C94.9412 96.816 99.6877 87.86 101.067 74.7525C101.096 74.1719 100.718 73.6494 100.152 73.5478Z" fill="white"/>
<path d="M100.152 73.5478C96.5234 72.9091 93.7799 69.6721 93.7799 65.7675C93.7799 65.2014 93.3881 64.7224 92.851 64.6498L89.0044 64.1563C86.8997 63.8805 84.7659 63.7498 82.6466 63.7498C80.5274 63.7498 78.3936 63.8805 76.2889 64.1563L72.4423 64.6498C71.9052 64.7224 71.5133 65.2014 71.5133 65.7675C71.5133 69.6721 68.7554 72.9091 65.1411 73.5478C64.575 73.6494 64.1976 74.1719 64.2556 74.7525C65.6346 87.86 70.3666 96.816 79.7145 104.262C80.5709 104.945 81.6161 105.293 82.6612 105.293C83.7063 105.293 84.7513 104.945 85.6078 104.262C94.9412 96.816 99.6877 87.86 101.067 74.7525C101.096 74.1719 100.718 73.6494 100.152 73.5478Z" stroke="#001F3A" stroke-width="0.484" stroke-miterlimit="10" stroke-linecap="round" stroke-linejoin="round"/>
<path d="M95.2167 77.5395C92.1684 76.2041 89.9331 73.4462 89.2509 70.1366L87.8138 69.9479C84.3882 69.498 80.8755 69.498 77.4643 69.9479L76.0273 70.1366C75.3306 73.4462 73.0952 76.2186 70.0615 77.5395C71.426 87.0616 75.1129 93.6371 82.1964 99.2836C82.3561 99.4142 82.5302 99.4433 82.6464 99.4433C82.7625 99.4433 82.9367 99.4142 83.0963 99.2836C90.1653 93.6371 93.8522 87.0616 95.2167 77.5395Z" fill="white"/>
<path d="M95.2167 77.5395C92.1684 76.2041 89.9331 73.4462 89.2509 70.1366L87.8138 69.9479C84.3882 69.498 80.8755 69.498 77.4643 69.9479L76.0273 70.1366C75.3306 73.4462 73.0952 76.2186 70.0615 77.5395C71.426 87.0616 75.1129 93.6371 82.1964 99.2836C82.3561 99.4142 82.5302 99.4433 82.6464 99.4433C82.7625 99.4433 82.9367 99.4142 83.0963 99.2836C90.1653 93.6371 93.8522 87.0616 95.2167 77.5395Z" stroke="#001F3A" stroke-width="0.484" stroke-miterlimit="10" stroke-linecap="round" stroke-linejoin="round"/>
<path d="M82.3852 100.474H67.6231C65.7796 100.474 64.27 98.9787 64.27 97.1208V87.8599C64.27 86.0165 65.7651 84.5069 67.6231 84.5069H82.3852C84.2287 84.5069 85.7383 86.002 85.7383 87.8599V97.1208C85.7238 98.9642 84.2287 100.474 82.3852 100.474Z" fill="white"/>
<path d="M82.3852 100.474H67.6231C65.7796 100.474 64.27 98.9787 64.27 97.1208V87.8599C64.27 86.0165 65.7651 84.5069 67.6231 84.5069H82.3852C84.2287 84.5069 85.7383 86.002 85.7383 87.8599V97.1208C85.7238 98.9642 84.2287 100.474 82.3852 100.474Z" stroke="#001F3A" stroke-width="0.484" stroke-miterlimit="10" stroke-linecap="round" stroke-linejoin="round"/>
<path d="M61.3669 105.583V77.1911C61.3669 76.5234 60.8153 75.9718 60.1476 75.9718C59.4798 75.9718 58.9282 76.5234 58.9282 77.1911V105.583" fill="white"/>
<path d="M61.3669 105.583V77.1911C61.3669 76.5234 60.8153 75.9718 60.1476 75.9718C59.4798 75.9718 58.9282 76.5234 58.9282 77.1911V105.583" stroke="#001F3A" stroke-width="0.484" stroke-miterlimit="10" stroke-linecap="round" stroke-linejoin="round"/>
<path d="M57.0269 105.583H69.0311" stroke="#001F3A" stroke-width="0.484" stroke-miterlimit="10" stroke-linecap="round" stroke-linejoin="round"/>
<path d="M67.9717 85.5665V79.9635" stroke="#001F3A" stroke-width="0.484" stroke-miterlimit="10" stroke-linecap="round" stroke-linejoin="round"/>
<path d="M81.6594 85.5665V79.9635" stroke="#001F3A" stroke-width="0.484" stroke-miterlimit="10" stroke-linecap="round" stroke-linejoin="round"/>
<path d="M74.7354 96.5256H80.1932C80.2948 96.5256 80.3673 96.4531 80.3673 96.3515V92.2436" fill="white"/>
<path d="M74.7354 96.5256H80.1932C80.2948 96.5256 80.3673 96.4531 80.3673 96.3515V92.2436" stroke="#001F3A" stroke-width="0.484" stroke-miterlimit="10" stroke-linecap="round" stroke-linejoin="round"/>
<path d="M81.5722 90.8646L75.5193 86.4084C75.4613 86.3648 75.3741 86.3648 75.3161 86.4084L69.2632 90.8646" fill="white"/>
<path d="M81.5722 90.8646L75.5193 86.4084C75.4613 86.3648 75.3741 86.3648 75.3161 86.4084L69.2632 90.8646" stroke="#001F3A" stroke-width="0.484" stroke-miterlimit="10" stroke-linecap="round" stroke-linejoin="round"/>
<path d="M73.9661 91.1259H76.7094C76.811 91.1259 76.8837 91.1985 76.8837 91.3001V93.8693C76.8837 93.9709 76.811 94.0435 76.7094 94.0435H74.866" fill="white"/>
<path d="M73.9661 91.1259H76.7094C76.811 91.1259 76.8837 91.1985 76.8837 91.3001V93.8693C76.8837 93.9709 76.811 94.0435 76.7094 94.0435H74.866" stroke="#001F3A" stroke-width="0.484" stroke-miterlimit="10" stroke-linecap="round" stroke-linejoin="round"/>
<path d="M61.3667 79.9635H86.5944" stroke="#001F3A" stroke-width="0.484" stroke-miterlimit="10" stroke-linecap="round" stroke-linejoin="round"/>
<path d="M35.5295 63.6482C35.3117 60.1935 34.8473 56.855 33.4248 54.8373C32.4958 53.5019 31.0297 52.0068 29.462 51.8907C30.6523 51.0343 31.4361 49.5973 31.4361 47.9716C31.4361 45.3297 29.3749 43.196 26.8202 43.196C24.28 43.196 22.2043 45.3297 22.2043 47.9716C22.2043 49.6118 23.0027 51.0488 24.2075 51.9052C22.7995 52.1375 21.4786 53.4584 20.6077 54.6486C19.0981 56.6808 18.6045 60.1064 18.3722 63.6482C18.2561 65.4046 19.6496 66.9142 21.406 66.9142H32.4813C34.2522 66.8997 35.6456 65.4046 35.5295 63.6482Z" fill="white"/>
<path d="M35.5295 63.6482C35.3117 60.1935 34.8473 56.855 33.4248 54.8373C32.4958 53.5019 31.0297 52.0068 29.462 51.8907C30.6523 51.0343 31.4361 49.5973 31.4361 47.9716C31.4361 45.3297 29.3749 43.196 26.8202 43.196C24.28 43.196 22.2043 45.3297 22.2043 47.9716C22.2043 49.6118 23.0027 51.0488 24.2075 51.9052C22.7995 52.1375 21.4786 53.4584 20.6077 54.6486C19.0981 56.6808 18.6045 60.1064 18.3722 63.6482C18.2561 65.4046 19.6496 66.9142 21.406 66.9142H32.4813C34.2522 66.8997 35.6456 65.4046 35.5295 63.6482Z" stroke="#001F3A" stroke-width="0.484" stroke-miterlimit="10" stroke-linecap="round" stroke-linejoin="round"/>
<path d="M29.4618 51.8762C31.0295 52.0069 32.4811 53.5019 33.4101 54.8374C34.8326 56.855 35.2971 60.1936 35.5148 63.6482C35.6309 65.4046 34.2374 66.8997 32.481 66.8997H21.4058C19.6349 66.8997 18.2414 65.4046 18.372 63.6337C18.6043 60.0919 19.1124 56.6663 20.6074 54.6341C21.4639 53.4729 22.7703 52.1665 24.1637 51.9053" fill="white"/>
<path d="M29.4618 51.8762C31.0295 52.0069 32.4811 53.5019 33.4101 54.8374C34.8326 56.855 35.2971 60.1936 35.5148 63.6482C35.6309 65.4046 34.2374 66.8997 32.481 66.8997H21.4058C19.6349 66.8997 18.2414 65.4046 18.372 63.6337C18.6043 60.0919 19.1124 56.6663 20.6074 54.6341C21.4639 53.4729 22.7703 52.1665 24.1637 51.9053" stroke="#001F3A" stroke-width="0.484" stroke-miterlimit="10" stroke-linecap="round" stroke-linejoin="round"/>
<path d="M31.4362 47.9716C31.4362 50.6134 29.3751 52.7471 26.8204 52.7471C24.2802 52.7471 22.219 50.6134 22.219 47.9716C22.219 45.3297 24.2802 43.196 26.8204 43.196C29.3751 43.196 31.4362 45.3297 31.4362 47.9716Z" fill="white"/>
<path d="M31.4362 47.9716C31.4362 50.6134 29.3751 52.7471 26.8204 52.7471C24.2802 52.7471 22.219 50.6134 22.219 47.9716C22.219 45.3297 24.2802 43.196 26.8204 43.196C29.3751 43.196 31.4362 45.3297 31.4362 47.9716Z" stroke="#001F3A" stroke-width="0.484" stroke-miterlimit="10" stroke-linecap="round" stroke-linejoin="round"/>
<path d="M53.7608 63.6482C53.5431 60.1935 53.0787 56.855 51.6562 54.8373C50.7272 53.5019 49.2611 52.0068 47.6934 51.8907C48.8837 51.0343 49.6676 49.5973 49.6676 47.9716C49.6676 45.3297 47.6063 43.196 45.0516 43.196C42.5114 43.196 40.4357 45.3297 40.4357 47.9716C40.4357 49.6118 41.234 51.0488 42.4388 51.9052C41.0308 52.1375 39.71 53.4584 38.839 54.6486C37.3294 56.6808 36.8359 60.1064 36.6037 63.6482C36.4876 65.4046 37.881 66.9142 39.6374 66.9142H50.7126C52.4835 66.8997 53.877 65.4046 53.7608 63.6482Z" fill="white"/>
<path d="M53.7608 63.6482C53.5431 60.1935 53.0787 56.855 51.6562 54.8373C50.7272 53.5019 49.2611 52.0068 47.6934 51.8907C48.8837 51.0343 49.6676 49.5973 49.6676 47.9716C49.6676 45.3297 47.6063 43.196 45.0516 43.196C42.5114 43.196 40.4357 45.3297 40.4357 47.9716C40.4357 49.6118 41.234 51.0488 42.4388 51.9052C41.0308 52.1375 39.71 53.4584 38.839 54.6486C37.3294 56.6808 36.8359 60.1064 36.6037 63.6482C36.4876 65.4046 37.881 66.9142 39.6374 66.9142H50.7126C52.4835 66.8997 53.877 65.4046 53.7608 63.6482Z" stroke="#001F3A" stroke-width="0.484" stroke-miterlimit="10" stroke-linecap="round" stroke-linejoin="round"/>
<path d="M47.7082 51.8762C49.2758 52.0069 50.7274 53.5019 51.6564 54.8374C53.0789 56.855 53.5433 60.1936 53.7611 63.6482C53.8772 65.4046 52.4837 66.8997 50.7274 66.8997H39.6521C37.8812 66.8997 36.4877 65.4046 36.6184 63.6337C36.8506 60.0919 37.3587 56.6663 38.8538 54.6341C39.7102 53.4729 41.0166 52.1665 42.4101 51.9053" fill="white"/>
<path d="M47.7082 51.8762C49.2758 52.0069 50.7274 53.5019 51.6564 54.8374C53.0789 56.855 53.5433 60.1936 53.7611 63.6482C53.8772 65.4046 52.4837 66.8997 50.7274 66.8997H39.6521C37.8812 66.8997 36.4877 65.4046 36.6184 63.6337C36.8506 60.0919 37.3587 56.6663 38.8538 54.6341C39.7102 53.4729 41.0166 52.1665 42.4101 51.9053" stroke="#001F3A" stroke-width="0.484" stroke-miterlimit="10" stroke-linecap="round" stroke-linejoin="round"/>
<path d="M49.6819 47.9716C49.6819 50.6134 47.6207 52.7471 45.066 52.7471C42.5258 52.7471 40.4646 50.6134 40.4646 47.9716C40.4646 45.3297 42.5258 43.196 45.066 43.196C47.6062 43.196 49.6819 45.3297 49.6819 47.9716Z" fill="white"/>
<path d="M49.6819 47.9716C49.6819 50.6134 47.6207 52.7471 45.066 52.7471C42.5258 52.7471 40.4646 50.6134 40.4646 47.9716C40.4646 45.3297 42.5258 43.196 45.066 43.196C47.6062 43.196 49.6819 45.3297 49.6819 47.9716Z" stroke="#001F3A" stroke-width="0.484" stroke-miterlimit="10" stroke-linecap="round" stroke-linejoin="round"/>
<path d="M28.9104 80.9941C26.6896 80.9941 24.9332 79.1071 25.0929 76.9008C25.3977 72.4446 26.0218 68.148 27.9088 65.5788C29.1136 63.9385 31.0151 62.0806 32.9892 62.0806C34.615 62.0806 36.5311 62.0951 38.7664 62.0951C40.8276 62.0951 42.7872 64.0837 44.0065 65.8255C45.7919 68.3657 46.3725 72.5752 46.6483 76.9153C46.7935 79.1217 45.0371 81.0087 42.8307 80.9941H28.9104Z" fill="white"/>
<path d="M28.9104 80.9941C26.6896 80.9941 24.9332 79.1071 25.0929 76.9008C25.3977 72.4446 26.0218 68.148 27.9088 65.5788C29.1136 63.9385 31.0151 62.0806 32.9892 62.0806C34.615 62.0806 36.5311 62.0951 38.7664 62.0951C40.8276 62.0951 42.7872 64.0837 44.0065 65.8255C45.7919 68.3657 46.3725 72.5752 46.6483 76.9153C46.7935 79.1217 45.0371 81.0087 42.8307 80.9941H28.9104Z" stroke="#001F3A" stroke-width="0.484" stroke-miterlimit="10" stroke-linecap="round" stroke-linejoin="round"/>
<path d="M41.5098 57.1888C41.5098 60.4984 38.9115 63.1982 35.7182 63.1982C32.5248 63.1982 29.9265 60.5129 29.9265 57.1888C29.9265 53.8793 32.5248 51.194 35.7182 51.194C38.9115 51.194 41.5098 53.8648 41.5098 57.1888Z" fill="white"/>
<path d="M35.7182 63.1982C38.9168 63.1982 41.5098 60.5077 41.5098 57.1889C41.5098 53.87 38.9168 51.1795 35.7182 51.1795C32.5195 51.1795 29.9265 53.87 29.9265 57.1889C29.9265 60.5077 32.5195 63.1982 35.7182 63.1982Z" stroke="#001F3A" stroke-width="0.484" stroke-miterlimit="10" stroke-linecap="round" stroke-linejoin="round"/>
<path d="M48.5063 83.157V89.3986C48.5063 90.9517 47.2434 92.2146 45.6903 92.2146C44.1371 92.2146 42.8743 90.9517 42.8743 89.3986V83.157" fill="white"/>
<path d="M48.5063 83.157V89.3986C48.5063 90.9517 47.2434 92.2146 45.6903 92.2146C44.1371 92.2146 42.8743 90.9517 42.8743 89.3986V83.157" stroke="#001F3A" stroke-width="0.484" stroke-miterlimit="10" stroke-linecap="round" stroke-linejoin="round"/>
<path d="M55.8509 73.3735C55.8509 79.0055 51.3076 83.5634 45.6901 83.5634C40.0726 83.5634 35.5293 79.0055 35.5293 73.3735C35.5293 67.7416 40.0726 63.1837 45.6901 63.1837C51.3076 63.1837 55.8509 67.7416 55.8509 73.3735Z" fill="white"/>
<path d="M55.8509 73.3735C55.8509 79.0055 51.3076 83.5634 45.6901 83.5634C40.0726 83.5634 35.5293 79.0055 35.5293 73.3735C35.5293 67.7416 40.0726 63.1837 45.6901 63.1837C51.3076 63.1837 55.8509 67.7416 55.8509 73.3735Z" stroke="#001F3A" stroke-width="0.484" stroke-miterlimit="10" stroke-linecap="round" stroke-linejoin="round"/>
<path d="M45.6902 77.9169C49.1013 77.9169 52.0625 76.0734 53.5431 73.3736C52.0625 70.6737 49.1013 68.8303 45.6902 68.8303C42.2791 68.8303 39.318 70.6737 37.8374 73.3736C39.318 76.0734 42.2791 77.9169 45.6902 77.9169Z" fill="white"/>
<path d="M45.6902 77.9169C49.1013 77.9169 52.0625 76.0734 53.5431 73.3736C52.0625 70.6737 49.1013 68.8303 45.6902 68.8303C42.2791 68.8303 39.318 70.6737 37.8374 73.3736C39.318 76.0734 42.2791 77.9169 45.6902 77.9169Z" stroke="#001F3A" stroke-width="0.484" stroke-miterlimit="10" stroke-linecap="round" stroke-linejoin="round"/>
<path d="M48.0708 73.3735C48.0708 74.6944 47.0112 75.7541 45.6903 75.7541C44.3694 75.7541 43.3098 74.6799 43.3098 73.3735C43.3098 72.0526 44.3694 70.993 45.6903 70.993C47.0112 70.993 48.0708 72.0526 48.0708 73.3735Z" fill="white"/>
<path d="M48.0708 73.3735C48.0708 74.6944 47.0112 75.7541 45.6903 75.7541C44.3694 75.7541 43.3098 74.6799 43.3098 73.3735C43.3098 72.0526 44.3694 70.993 45.6903 70.993C47.0112 70.993 48.0708 72.0526 48.0708 73.3735Z" stroke="#001F3A" stroke-width="0.484" stroke-miterlimit="10" stroke-linecap="round" stroke-linejoin="round"/>
<path d="M73.6756 94.8273C73.6756 95.5386 73.2838 96.1628 72.5144 96.6853C72.2241 96.8885 72.0064 97.0046 71.8467 97.0337C71.7306 97.0482 71.4838 97.0482 71.1064 97.0192C70.9322 97.0046 70.7435 96.903 70.5403 96.7289C70.3371 96.5402 70.2355 96.366 70.2355 96.2063C70.221 96.0321 70.221 95.4225 70.221 94.3919H69.713L69.1614 93.8403H70.279C70.2935 93.7822 70.2935 93.4193 70.279 92.7371C70.279 92.4758 70.1484 92.3452 69.8726 92.3452C69.7565 92.3452 69.6694 92.3597 69.6259 92.4033C69.5823 92.3016 69.5243 92.113 69.4372 91.8662C69.771 91.721 70.0323 91.692 70.25 91.7791C70.6419 91.9242 70.8451 92.2 70.8306 92.6065C70.8161 92.8387 70.8306 93.1145 70.8451 93.4048C70.8596 93.5935 70.8596 93.7387 70.8451 93.8403H71.1645L71.716 94.3919H70.8451V95.9595C70.8451 96.2789 71.0338 96.4385 71.4112 96.4385C71.8903 96.4385 72.2532 96.1918 72.529 95.6837C72.7177 95.3499 72.8047 95.1322 72.7757 95.0451C72.4999 95.0596 72.2676 95.016 72.108 94.8854C71.9338 94.7547 71.8612 94.5515 71.9047 94.2757C71.9483 93.8258 72.2096 93.5935 72.6596 93.5935C73.3273 93.579 73.6756 93.9999 73.6756 94.8273Z" fill="black"/>
</svg>
